<?xml version="1.0" encoding="utf-8"?>
<!-- Svg Vector Icons : http://www.onlinewebfonts.com/icon -->
<!DOCTYPE svg PUBLIC "-//W3C//DTD SVG 1.1//EN" "http://www.w3.org/Graphics/SVG/1.1/DTD/svg11.dtd">
<svg version="1.1" xmlns="http://www.w3.org/2000/svg" xmlns:xlink="http://www.w3.org/1999/xlink" x="0px" y="0px" viewBox="0 0 256 256" enable-background="new 0 0 256 256" xml:space="preserve">
<metadata> Svg Vector Icons : http://www.onlinewebfonts.com/icon </metadata>
<g><g><path fill="#000000" d="M127.3,101.4h1.5v0.2h-1.5V101.4L127.3,101.4z"/><path fill="#000000" d="M110.8,186.8l0.8,0.3c-2.1-1.6-7.4-5.5-14.3-7.8c-8.2-2.7-20.5-3.7-32.2,7c-0.1,0.1-0.3,0.2-0.5,0.1c-2.8-0.7-14.9-30.6-25.7-58.6c-0.6,0.4-1.2,0.8-1.8,1.3c-1,0.8-2.2,1.7-3.6,2.4c13.5,33.7,27,66.7,29,68.6C74.9,173.9,91.5,179.9,110.8,186.8z"/><path fill="#000000" d="M191.4,186c-0.2,0-0.4,0-0.5-0.1c-11.7-10.7-24-9.7-32.2-7c-6.9,2.3-12.2,6.1-14.3,7.8l0.1,0c18-6.6,36.5-13.4,49,13c1.9-1.9,14.7-33,27.8-65.7c-0.1-0.1-0.3-0.1-0.4-0.2c-2.2-0.6-3.8-1.7-5.1-2.8C205.3,157.9,194.1,185.3,191.4,186z"/><path fill="#000000" d="M126.4,101.8L126.4,101.8c-5-5.8-49.7-55.5-101.4-43.7c-0.4,0.6,2.3,6.1,5.1,11.2l9-0.3l-4.6-8.1l0.3,0c30.1-4.9,80.4,32.1,90.1,39.6l-0.2,0.3c0.3,0.1,0.5,0.3,0.8,0.5l0.4,0.3l-0.5,0.1c-0.2,0-0.3,0.3-0.3,0.6l2.6,83.5c0,0.4,0.2,0.7,0.4,0.7h0.5c0.2,0,0.4-0.3,0.4-0.7l2.5-83.4c0-0.3-0.2-0.6-0.4-0.6h-1l0.7-0.4c11.3-6.9,34.2-14.8,58.5-20.1c19.5-4.3,41.8-7.2,46-2.5l0.1,0.1l0,0.1c-0.5,1.3-4.5,12.2-9.9,26.6c2.1,0.5,4.4,1.2,6.4,2c5.6-14.1,10.7-27.1,14.3-36.2c-55.5-5.6-101.3,20.8-114.1,29l-0.2-0.4c13.7-10.5,60.6-44.2,89.6-39.6l0.3,0l-4.6,8.1l9,0.2c2.8-5.1,5.5-10.6,5.1-11.2C179.5,46,134.6,96,129.7,101.8l-0.1,0.1h-0.4v-0.2h-0.5h-1.5h-0.5v0.2H126.4L126.4,101.8z"/><path fill="#000000" d="M20.8,79.4l0-0.1l0.1-0.1c4.2-4.7,26.5-1.9,46.1,2.4c23.5,5.1,45.7,12.5,57.4,19.1C111.1,92.2,65.4,66.2,10,71.8c3.3,8.6,8,20.4,13.1,33.4c2.3-0.6,4.7-1,6.7-1.3C24.9,90.6,21.3,80.7,20.8,79.4z"/><path fill="#000000" d="M16.4,110.5c-0.2,1.1,0.4,2.1,0.8,2.5c1,1.1,2.3,1.6,2.7,1.3c3.6-2.3,9.4-4.3,17.1-5.9c0.9-0.2,3.5-1,3.3-2.3c-0.3-1.6-2.7-1.9-4.7-1.9c-0.6,0-1.2,0-1.5,0c-0.1,0-0.2,0-0.3,0c-2.9,0.1-10.8,1.4-14.9,3.2C17.8,108,16.6,109.4,16.4,110.5z"/><path fill="#000000" d="M18.3,118.6c0.5,1.7,1.4,2.6,2.6,2.6c0.9,0,1.7-0.4,1.9-0.6l0.2-0.1c1.8-1.1,7.2-4.4,15.5-5.3c3.7-0.4,8-2.3,7.9-3.9c0-0.6-0.2-2.2-3.8-2.2c-1.9,0-4.1,0.4-6,0.9c-4.5,1-12.1,3.3-16.1,5.2C19.5,115.4,17.9,117,18.3,118.6z"/><path fill="#000000" d="M40.8,116.2c-0.1,0-0.2,0-0.2,0c-3.8,0.4-10.7,2.1-17,5.2c-1,0.5-2.1,1.7-2.2,2.9c-0.1,1.3,0.4,2.1,0.9,2.6c0.7,0.7,1.5,1,2,1c0.2,0,0.3,0,0.5-0.1c2.7-1,4.6-2,6.5-3.1c1.7-1,3.5-2,5.8-2.8c0.1,0,0.3-0.1,0.6-0.2c6-1.6,6.8-2.8,6.7-3.4c-0.2-1.5-1-2.1-2.5-2.1C41.4,116.1,41.1,116.1,40.8,116.2z"/><path fill="#000000" d="M36.6,123.5l-0.1,0c-2.7,1-4.4,2-7.7,4.1c-0.6,0.4-1.2,0.8-1.9,1.2c-0.5,0.3-0.7,0.6-0.8,1c-0.1,0.3,0,0.7,0.3,1.2c0.8,1.1,1.3,1.3,1.7,1.3l0,0c0.4,0,0.8-0.2,1.2-0.3c0.3-0.1,0.6-0.2,0.9-0.3c2.8-0.5,4.6-2,6.3-3.3c0.8-0.6,1.5-1.2,2.4-1.7c0,0,0.1-0.1,0.2-0.1c0.6-0.3,2.1-1.2,2.3-2.2c0.1-0.4,0-0.8-0.4-1.3c-0.1-0.1-0.4-0.2-0.9-0.2C38.9,122.7,37.2,123.3,36.6,123.5z"/><path fill="#000000" d="M219.3,105.4c-0.5-0.1-1.5-0.2-2.6-0.2c-1.5,0-3.4,0.3-3.8,1.6c-0.3,1.2,2.2,2.2,3.1,2.5c7.6,2.2,13.2,4.6,16.7,7.1c0.1,0.1,0.2,0.1,0.4,0.1c0.6,0,1.7-0.5,2.5-1.3c0.7-0.7,1-1.6,0.9-2.4c-0.1-1.2-1.3-2.6-2.3-3.1c-4-2.1-11.8-4-14.7-4.3C219.5,105.4,219.4,105.4,219.3,105.4z"/><path fill="#000000" d="M232.1,117.1c-3.9-2.1-11.3-4.9-15.7-6.3c-2.1-0.6-4.6-1.3-6.6-1.3c-2.6,0-3.1,1.1-3.2,2c-0.3,1.6,3.9,3.8,7.5,4.5c8.2,1.6,13.3,5.2,15,6.4l0.2,0.1c0.2,0.2,1.1,0.7,2,0.7c1.2,0,2-0.8,2.6-2.4C234.5,119.2,233,117.5,232.1,117.1z"/><path fill="#000000" d="M228.5,123.2c-6.1-3.5-12.9-5.8-16.6-6.4c-0.1,0-0.1,0-0.2,0c-0.3-0.1-0.8-0.2-1.3-0.2c-1.3,0-2.1,0.7-2.4,2c-0.1,0.6,0.5,1.9,6.4,3.9c0.3,0.1,0.5,0.2,0.6,0.2c2.2,1,3.9,2.1,5.6,3.2c1.8,1.2,3.6,2.4,6.2,3.6c0.2,0.1,0.4,0.1,0.6,0.1c1.2,0,3-1,3-3.3C230.5,125,229.5,123.7,228.5,123.2z"/><path fill="#000000" d="M215.4,124.4l-0.1,0c-1.6-0.7-2.9-1.1-3.7-1.1c-0.2,0-0.5,0-0.7,0.2c-0.4,0.4-0.6,0.8-0.5,1.3c0.1,1.1,1.6,2,2.1,2.4c0.1,0,0.1,0.1,0.2,0.1c0.8,0.6,1.5,1.2,2.2,1.9c1.6,1.5,3.3,3,6.1,3.8c0.3,0.1,0.6,0.2,0.9,0.4c0.4,0.2,0.8,0.4,1.3,0.4c0.6,0,1.1-0.4,1.7-1.1c0.3-0.4,0.5-0.8,0.4-1.1c0-0.4-0.3-0.7-0.7-1c-0.7-0.5-1.2-0.9-1.8-1.3C219.7,126.7,218.1,125.6,215.4,124.4z"/></g></g>
</svg>